<?xml version="1.0" encoding="utf-8"?>
<!-- Generator: Adobe Illustrator 16.0.3, SVG Export Plug-In . SVG Version: 6.00 Build 0)  -->
<!DOCTYPE svg PUBLIC "-//W3C//DTD SVG 1.1//EN" "http://www.w3.org/Graphics/SVG/1.1/DTD/svg11.dtd">
<svg version="1.1" id="Layer_1" xmlns="http://www.w3.org/2000/svg" xmlns:xlink="http://www.w3.org/1999/xlink" x="0px" y="0px"
	 width="52.842px" height="34.347px" viewBox="0 0 52.842 34.347" enable-background="new 0 0 52.842 34.347" xml:space="preserve">
<path fill="#098D45" d="M40.194,9.618c-0.729,0-1.443,0.063-2.137,0.18C36.323,4.13,30.953,0,24.594,0
	c-7.762,0-14.053,6.151-14.053,13.74c0,0.677,0.052,1.343,0.149,1.994c-0.373-0.042-0.749-0.072-1.134-0.072
	C4.279,15.662,0,19.846,0,25.005s4.279,9.342,9.557,9.342h30.638c6.985,0,12.647-5.536,12.647-12.365
	C52.842,15.154,47.18,9.618,40.194,9.618z"/>
<polygon fill="#FFFFFF" points="31.325,27.533 26.251,24.865 21.178,27.533 22.146,21.884 18.042,17.882 23.716,17.058 
	26.251,11.917 28.789,17.058 34.461,17.882 30.357,21.884 "/>
</svg>
